<svg width="124" height="23" viewBox="0 0 124 23" fill="none" xmlns="http://www.w3.org/2000/svg">
<path d="M14.9723 7.32536C14.9723 11.371 11.6665 14.6507 7.58855 14.6507C3.51065 14.6507 0.204834 11.371 0.204834 7.32536C0.204834 3.27968 3.51065 0 7.58855 0C11.6665 0 14.9723 3.27968 14.9723 7.32536Z" fill="white"/>
<path d="M27.0578 19.7447C27.0578 21.0236 26.0128 22.0602 24.7238 22.0602C23.4348 22.0602 22.3899 21.0236 22.3899 19.7447C22.3899 18.4659 23.4348 17.4293 24.7238 17.4293C26.0128 17.4293 27.0578 18.4659 27.0578 19.7447Z" fill="white"/>
<path d="M20.2851 0V22.0602H16.6697V0H20.2851Z" fill="white"/>
<path d="M42.7812 19.0578L44.2892 17.7259L42.8548 16.1386C43.903 14.9345 44.4915 13.2925 44.4915 11.3768C44.4915 7.30817 41.8065 4.48022 37.963 4.48022C34.1195 4.48022 31.4529 7.32641 31.4529 11.3768C31.4529 15.4453 34.1011 18.2733 37.9446 18.2733C39.2135 18.2733 40.3537 17.9631 41.31 17.4158L42.7812 19.0578ZM42.0088 11.3768C42.0088 12.5444 41.733 13.5479 41.2364 14.3142L39.4526 12.3255L37.963 13.6574L39.7468 15.646C39.2135 15.9015 38.625 16.0292 37.963 16.0292C35.4987 16.0292 33.9172 14.2229 33.9172 11.3768C33.9172 8.53057 35.4987 6.72433 37.963 6.72433C40.4273 6.72433 42.0088 8.53057 42.0088 11.3768ZM52.5122 9.04142V13.7668C52.5122 15.4818 51.8317 16.3029 50.4157 16.3029C49.1652 16.3029 48.4847 15.6095 48.4847 13.8945V9.04142H46.2411V14.6791C46.2411 16.8867 47.4733 18.2915 49.5697 18.2915C50.7835 18.2915 51.9605 17.7077 52.5122 16.8502L52.6777 18.0544H54.7558V9.04142H52.5122ZM60.9577 18.2915C63.33 18.2915 64.9851 17.1056 65.3713 15.1352H63.2932C63.0357 15.9927 62.2266 16.4671 60.9944 16.4671C59.5048 16.4671 58.6589 15.6643 58.4934 14.077L65.3345 14.0587V13.3837C65.3345 10.574 63.6058 8.76775 60.8841 8.76775C58.2175 8.76775 56.3601 10.7199 56.3601 13.5479C56.3601 16.3393 58.2543 18.2915 60.9577 18.2915ZM60.9025 10.5922C62.245 10.5922 63.1093 11.4132 63.1093 12.6539H58.5485C58.7692 11.3038 59.5784 10.5922 60.9025 10.5922ZM66.4313 15.3176C66.4313 17.0874 67.8657 18.2915 70.1277 18.2915C72.3713 18.2915 73.9345 17.1604 73.9345 15.3359C73.9345 13.9493 73.1621 13.256 71.6357 12.9093L69.999 12.5262C69.2266 12.3437 68.822 12.0153 68.822 11.5045C68.822 10.8294 69.3369 10.428 70.2197 10.428C71.084 10.428 71.5989 10.9206 71.6173 11.6869H73.7506C73.7322 9.93542 72.3529 8.76775 70.3116 8.76775C68.2151 8.76775 66.7071 9.82595 66.7071 11.5957C66.7071 13.037 67.4979 13.8033 69.1346 14.1682L70.7714 14.5514C71.5805 14.7338 71.8196 15.0622 71.8196 15.5183C71.8196 16.1751 71.2495 16.5948 70.2013 16.5948C69.1714 16.5948 68.5829 16.1022 68.5646 15.3176H66.4313ZM78.7325 18.0544V10.9024H80.4979V9.04142H78.7325V6.23172H76.4889V9.04142H74.7418V10.9024H76.4889V18.0544H78.7325ZM83.9707 18.0544L84.1178 16.6495C84.6511 17.6895 85.8097 18.2915 87.1706 18.2915C89.782 18.2915 91.4923 16.3758 91.4923 13.6026C91.4923 10.7564 89.9107 8.74951 87.3177 8.74951C85.9384 8.74951 84.7247 9.35158 84.1362 10.355V4.48022H81.8926V18.0544H83.9707ZM84.1546 13.5114C84.1546 11.8876 85.1661 10.7564 86.7108 10.7564C88.2924 10.7564 89.2303 11.9059 89.2303 13.5114C89.2303 15.1169 88.2924 16.2481 86.7108 16.2481C85.1661 16.2481 84.1546 15.1352 84.1546 13.5114ZM92.7454 13.5296C92.7454 16.3393 94.7867 18.2733 97.6004 18.2733C100.414 18.2733 102.455 16.3393 102.455 13.5296C102.455 10.7199 100.414 8.786 97.6004 8.786C94.7867 8.786 92.7454 10.7199 92.7454 13.5296ZM94.989 13.5296C94.989 11.8876 96.0556 10.7747 97.6004 10.7747C99.1451 10.7747 100.212 11.8876 100.212 13.5296C100.212 15.1717 99.1451 16.2846 97.6004 16.2846C96.0556 16.2846 94.989 15.1717 94.989 13.5296ZM103.7 13.5296C103.7 16.3393 105.742 18.2733 108.555 18.2733C111.369 18.2733 113.41 16.3393 113.41 13.5296C113.41 10.7199 111.369 8.786 108.555 8.786C105.742 8.786 103.7 10.7199 103.7 13.5296ZM105.944 13.5296C105.944 11.8876 107.011 10.7747 108.555 10.7747C110.1 10.7747 111.167 11.8876 111.167 13.5296C111.167 15.1717 110.1 16.2846 108.555 16.2846C107.011 16.2846 105.944 15.1717 105.944 13.5296ZM117.451 18.0544V15.6278L118.775 14.2594L121.147 18.0544H123.722L120.338 12.6174L123.795 9.04142H120.982L117.451 12.8181V4.48022H115.225V18.0544H117.451Z" fill="white"/>
</svg>
